<svg width="30" height="30" viewBox="0 0 30 30" fill="none" xmlns="http://www.w3.org/2000/svg">
<path d="M7.90575 15.978H11.1942V29.5161C11.1942 29.7834 11.4108 30 11.6781 30H17.2538C17.5211 30 17.7377 29.7834 17.7377 29.5161V16.0418H21.5181C21.7639 16.0418 21.9707 15.8573 21.9988 15.6132L22.5729 10.6291C22.5887 10.492 22.5453 10.3546 22.4535 10.2518C22.3617 10.1488 22.2303 10.0899 22.0924 10.0899H17.7379V6.96561C17.7379 6.02381 18.245 5.54623 19.2453 5.54623C19.3878 5.54623 22.0924 5.54623 22.0924 5.54623C22.3596 5.54623 22.5762 5.32955 22.5762 5.06235V0.487452C22.5762 0.220161 22.3596 0.00358065 22.0924 0.00358065H18.1686C18.141 0.00222581 18.0795 0 17.9889 0C17.3081 0 14.9417 0.133645 13.0724 1.85332C11.0013 3.759 11.2892 6.04074 11.358 6.43636V10.0898H7.90575C7.63846 10.0898 7.42188 10.3064 7.42188 10.5736V15.494C7.42188 15.7613 7.63846 15.978 7.90575 15.978Z" fill="white"/>
</svg>
