<svg width="30" height="30" viewBox="0 0 30 30" fill="none" xmlns="http://www.w3.org/2000/svg">
<path fill-rule="evenodd" clip-rule="evenodd" d="M6.46539 15C6.46539 14.0257 6.62711 13.0915 6.91609 12.2154L1.86063 8.35498C0.875313 10.3554 0.320312 12.6096 0.320312 15C0.320312 17.3885 0.874844 19.6411 1.85852 21.6403L6.91117 17.7724C6.625 16.9003 6.46539 15.9696 6.46539 15Z" fill="#FBBC05"/>
<path fill-rule="evenodd" clip-rule="evenodd" d="M15.3414 6.13641C17.458 6.13641 19.3698 6.88641 20.8719 8.11359L25.2416 3.75C22.5789 1.4318 19.165 0 15.3414 0C9.40512 0 4.30324 3.39469 1.86035 8.355L6.91559 12.2154C8.08043 8.67961 11.4008 6.13641 15.3414 6.13641Z" fill="#EA4335"/>
<path fill-rule="evenodd" clip-rule="evenodd" d="M15.3414 23.8637C11.4011 23.8637 8.08066 21.3204 6.91582 17.7847L1.86035 21.6444C4.30324 26.6054 9.40512 30.0001 15.3414 30.0001C19.0051 30.0001 22.5032 28.699 25.1284 26.2615L20.3298 22.5519C18.9758 23.4047 17.2707 23.8637 15.3414 23.8637Z" fill="#34A853"/>
<path fill-rule="evenodd" clip-rule="evenodd" d="M29.6797 15C29.6797 14.1136 29.543 13.159 29.3382 12.2728H15.3413V18.0682H23.3982C22.9953 20.0442 21.8989 21.5632 20.3297 22.5518L25.1283 26.2615C27.886 23.7021 29.6797 19.8893 29.6797 15Z" fill="#4285F4"/>
</svg>
