<svg width="17" height="16" viewBox="0 0 17 16" fill="none" xmlns="http://www.w3.org/2000/svg">
<path d="M9.15489 16C8.98146 16 8.81514 15.9298 8.69251 15.8047C8.56988 15.6797 8.50098 15.5101 8.50098 15.3333C8.50098 15.1565 8.56988 14.987 8.69251 14.8619C8.81514 14.7369 8.98146 14.6667 9.15489 14.6667C10.6193 14.6669 12.0414 14.166 13.1934 13.2441C14.3453 12.3222 15.1604 11.0328 15.508 9.58251C15.8556 8.13217 15.7157 6.60484 15.1105 5.24525C14.5054 3.88566 13.4702 2.77251 12.1707 2.08417C10.8712 1.39582 9.38265 1.17212 7.94361 1.44891C6.50457 1.7257 5.19831 2.48697 4.23414 3.61072C3.26997 4.73447 2.7037 6.15566 2.62606 7.64658C2.54843 9.13749 2.96392 10.6118 3.80596 11.8333C3.90524 11.9776 3.94446 12.156 3.91506 12.3297C3.88565 12.5033 3.79 12.658 3.64903 12.76C3.57875 12.8112 3.49922 12.8476 3.41504 12.8673C3.33087 12.8869 3.24371 12.8894 3.15859 12.8745C3.07348 12.8596 2.9921 12.8277 2.91915 12.7806C2.8462 12.7335 2.78312 12.6721 2.73356 12.6C1.72317 11.1343 1.22458 9.36521 1.31766 7.57622C1.41075 5.78724 2.09012 4.08188 3.24694 2.73336C4.40376 1.38485 5.97107 0.471228 7.69777 0.138879C9.42447 -0.193471 11.2106 0.0746841 12.7701 0.900383C14.3295 1.72608 15.572 3.06153 16.2984 4.69278C17.0248 6.32403 17.1932 8.15666 16.7765 9.89707C16.3598 11.6375 15.3822 13.1849 14.0003 14.2915C12.6183 15.398 10.9121 15.9997 9.15489 16Z" fill="#99805B"/>
<path d="M3.92342 13.3332H0.653903C0.480477 13.3332 0.314154 13.2629 0.191524 13.1379C0.0688931 13.0129 0 12.8433 0 12.6665C0 12.4897 0.0688931 12.3201 0.191524 12.1951C0.314154 12.0701 0.480477 11.9998 0.653903 11.9998H3.26951V9.33317C3.26951 9.15636 3.33841 8.98679 3.46104 8.86177C3.58367 8.73674 3.74999 8.6665 3.92342 8.6665C4.09684 8.6665 4.26316 8.73674 4.38579 8.86177C4.50842 8.98679 4.57732 9.15636 4.57732 9.33317V12.6665C4.57732 12.8433 4.50842 13.0129 4.38579 13.1379C4.26316 13.2629 4.09684 13.3332 3.92342 13.3332Z" fill="#99805B"/>
<path d="M7.19285 10.6667C7.10679 10.6672 7.02148 10.6504 6.94181 10.6172C6.86214 10.584 6.78968 10.5351 6.72858 10.4733C6.66729 10.4114 6.61864 10.3376 6.58545 10.2564C6.55225 10.1751 6.53516 10.088 6.53516 10C6.53516 9.91199 6.55225 9.82485 6.58545 9.74361C6.61864 9.66237 6.66729 9.58864 6.72858 9.52666L8.50066 7.72666V4.66667C8.50066 4.48986 8.56955 4.32029 8.69218 4.19526C8.81481 4.07024 8.98113 4 9.15456 4C9.32798 4 9.49431 4.07024 9.61694 4.19526C9.73957 4.32029 9.80846 4.48986 9.80846 4.66667V8C9.80896 8.08774 9.79246 8.17471 9.75992 8.25594C9.72738 8.33716 9.67943 8.41104 9.61883 8.47333L7.65712 10.4733C7.59602 10.5351 7.52356 10.584 7.44389 10.6172C7.36422 10.6504 7.27891 10.6672 7.19285 10.6667Z" fill="#99805B"/>
</svg>
