<svg width="30" height="30" viewBox="0 0 30 30" fill="none" xmlns="http://www.w3.org/2000/svg">
<g clip-path="url(#clip0_104_314)">
<path d="M29.3202 5.55397C28.8489 5.763 28.3643 5.93942 27.8692 6.08265C28.4554 5.41974 28.9023 4.63975 29.1751 3.7862C29.2363 3.59488 29.1729 3.38546 29.0156 3.26033C28.8586 3.1351 28.6403 3.1201 28.4674 3.22259C27.416 3.8462 26.2816 4.29436 25.0921 4.55642C23.894 3.38565 22.2666 2.71936 20.5843 2.71936C17.0331 2.71936 14.1441 5.60836 14.1441 9.15939C14.1441 9.43906 14.1618 9.71719 14.1968 9.99145C9.79018 9.60455 5.69344 7.43865 2.88021 3.98778C2.77996 3.86478 2.6255 3.79849 2.46738 3.81117C2.30915 3.82355 2.16699 3.91278 2.08705 4.04991C1.51647 5.02897 1.21483 6.14874 1.21483 7.28807C1.21483 8.83984 1.76886 10.3122 2.74754 11.4626C2.44996 11.3595 2.16118 11.2307 1.88557 11.0777C1.7376 10.9954 1.55702 10.9966 1.41002 11.0809C1.26292 11.1652 1.1707 11.3203 1.16683 11.4897C1.16615 11.5183 1.16615 11.5468 1.16615 11.5757C1.16615 13.892 2.41279 15.9774 4.31876 17.114C4.15502 17.0977 3.99137 17.074 3.82879 17.0429C3.66118 17.0109 3.48883 17.0696 3.37579 17.1974C3.26257 17.3252 3.22512 17.5033 3.27728 17.6658C3.98276 19.8684 5.79912 21.4885 7.99492 21.9824C6.17373 23.1231 4.09105 23.7206 1.90473 23.7206C1.44854 23.7206 0.98973 23.6938 0.540698 23.6407C0.317633 23.6141 0.104343 23.7459 0.0283754 23.958C-0.0475924 24.1702 0.0329238 24.4068 0.222698 24.5285C3.03138 26.3293 6.27902 27.2812 9.61434 27.2812C16.1712 27.2812 20.273 24.1893 22.5592 21.5954C25.4102 18.3612 27.0453 14.0802 27.0453 9.85026C27.0453 9.67355 27.0426 9.4951 27.0372 9.31722C28.162 8.46977 29.1304 7.44416 29.9184 6.26536C30.0381 6.08632 30.0252 5.84971 29.8865 5.68491C29.748 5.52 29.5172 5.46668 29.3202 5.55397Z" fill="white"/>
</g>
<defs>
<clipPath id="clip0_104_314">
<rect width="30" height="30" fill="white"/>
</clipPath>
</defs>
</svg>
